<?xml version="1.0" standalone="no"?><!DOCTYPE svg PUBLIC "-//W3C//DTD SVG 1.1//EN" "http://www.w3.org/Graphics/SVG/1.1/DTD/svg11.dtd"><svg t="1522030110693" class="icon" style="" viewBox="0 0 1039 1024" version="1.1" xmlns="http://www.w3.org/2000/svg" p-id="4939" xmlns:xlink="http://www.w3.org/1999/xlink" width="202.9296875" height="200"><defs><style type="text/css"></style></defs><path d="M932.117336 846.456375 627.301026 846.456375 512.01228 959.332165 396.654972 846.456375 91.873454 846.456375c-50.251497 0-91.140767-40.028669-91.140767-89.221044L0.732687 153.856134c0-49.15963 40.889269-89.188298 91.140767-89.188298l840.243883 0c50.251497 0 91.106997 40.029692 91.106997 89.188298l0 603.379197C1023.224334 806.427706 982.368834 846.456375 932.117336 846.456375L932.117336 846.456375zM930.231383 193.256492c0-25.440415-20.841677-46.149063-46.414099-46.149063L140.271744 147.107429c-25.637913 0-46.479591 20.708648-46.479591 46.149063l0 527.620769c0 25.440415 20.841677 46.116317 46.479591 46.116317l294.526967 0 77.246315 76.748988 77.1798-76.748988 294.592458 0c25.571399 0 46.414099-20.675902 46.414099-46.116317L930.231383 193.256492 930.231383 193.256492zM704.679347 499.296677c-33.345456 0-60.539818-26.66429-60.539818-59.381435 0-32.6844 27.193339-59.315944 60.539818-59.315944 33.44574 0 60.606333 26.630521 60.606333 59.315944C765.28568 472.632387 738.12611 499.296677 704.679347 499.296677L704.679347 499.296677zM512.01228 499.296677c-33.379225 0-60.606333-26.66429-60.606333-59.381435 0-32.6844 27.227108-59.315944 60.606333-59.315944 33.379225 0 60.538795 26.630521 60.538795 59.315944C572.551074 472.632387 545.390481 499.296677 512.01228 499.296677L512.01228 499.296677zM319.27665 499.296677c-33.379225 0-60.572564-26.66429-60.572564-59.381435 0-32.6844 27.193339-59.315944 60.572564-59.315944 33.346479 0 60.539818 26.630521 60.539818 59.315944C379.817492 472.632387 352.62313 499.296677 319.27665 499.296677L319.27665 499.296677z" p-id="4940" fill="#bfbfbf"></path></svg>