<?xml version="1.0" encoding="utf-8"?>
<!-- Generator: Adobe Illustrator 21.0.0, SVG Export Plug-In . SVG Version: 6.00 Build 0)  -->
<svg version="1.1" id="Layer_1" xmlns="http://www.w3.org/2000/svg" xmlns:xlink="http://www.w3.org/1999/xlink" x="0px" y="0px"
	 viewBox="0 0 200 200" style="enable-background:new 0 0 200 200;" xml:space="preserve">
<style type="text/css">
	.st0{fill:#BFBFBF;stroke:#BFBFBF;stroke-width:4;stroke-miterlimit:10;}
</style>
<path class="st0" d="M184.9,78.8l-10.7-9.7c-5.8-5.2-13.2-8.1-21-8.1l-29.4,0v-15c0-11.5-9.4-20.9-20.9-20.9H25.8
	c-11.5,0-20.9,9.4-20.9,20.9v121.5h23.8c0,13.1,10.7,23.8,23.8,23.8s23.8-10.7,23.8-23.8h35.7h11.9c0,13.1,10.7,23.8,23.8,23.8
	c13.1,0,23.8-10.7,23.8-23.8h23.8V102C195.1,93.2,191.4,84.8,184.9,78.8z M176.9,87.7c4,3.7,6.3,8.9,6.3,14.3v6.2h-23.8V74
	c2.5,0.8,4.8,2.2,6.8,4L176.9,87.7z M52.5,179.5c-6.6,0-11.9-5.3-11.9-11.9c0-6.6,5.3-11.9,11.9-11.9s11.9,5.3,11.9,11.9
	C64.3,174.1,59,179.5,52.5,179.5z M111.9,155.7H73c-4.1-7.1-11.8-11.9-20.6-11.9s-16.5,4.8-20.6,11.9H16.8V46.1c0-5,4-9,9-9h77.1
	c5,0,9,4,9,9v15V155.7z M147.5,179.5c-6.6,0-11.9-5.3-11.9-11.9c0-6.6,5.3-11.9,11.9-11.9c6.6,0,11.9,5.3,11.9,11.9
	C159.4,174.1,154.1,179.5,147.5,179.5z M168.1,155.7c-4.1-7.1-11.8-11.9-20.6-11.9c-8.8,0-16.5,4.8-20.6,11.9h-3.2V72.9h23.8V120
	h35.7v35.7H168.1z"/>
</svg>
