<?xml version="1.0" encoding="utf-8"?>
<!-- Generator: Adobe Illustrator 21.0.0, SVG Export Plug-In . SVG Version: 6.00 Build 0)  -->
<svg version="1.1" id="Layer_1" xmlns="http://www.w3.org/2000/svg" xmlns:xlink="http://www.w3.org/1999/xlink" x="0px" y="0px"
	 viewBox="0 0 200 200" style="enable-background:new 0 0 200 200;" xml:space="preserve">
<style type="text/css">
	.st0{fill:#BFBFBF;stroke:#BFBFBF;stroke-width:5;stroke-miterlimit:10;}
</style>
<path class="st0" d="M58.9,117.8l28.8,25.5c0.1,0.2,0.3,0.5,0.6,0.8c1.4,1.2,3.1,1.9,5.2,1.9h0.2c1.9,0,3.7-0.7,5.1-1.9
	c0.3-0.3,0.5-0.6,0.7-0.9l45.6-51.4c1.4-1.3,2.2-3,2.2-4.8c0-1.8-0.8-3.5-2.2-4.8c-2.8-2.4-7.3-2.6-10.3,0.1l-41.4,47.4l-24.3-21.5
	c-2.8-2.4-7.5-2.4-10.2,0c-1.4,1.3-2.2,3-2.2,4.8C56.7,114.8,57.5,116.5,58.9,117.8z M165.9,18.1c-2.3-3.5-6.2-5.6-10.4-5.6L44,12.5
	c-4.2,0-8.1,2.1-10.4,5.6L12.5,50v124.9c0,6.9,5.6,12.5,12.5,12.5h149.9c6.9,0,12.5-5.6,12.5-12.5l0-124.9L165.9,18.1z M174.9,174.9
	H25V62.5h149.9V174.9z M25,50l18.3-24.9L157,25l17.9,25H25z"/>
</svg>
