<?xml version="1.0" encoding="utf-8"?>
<!-- Generator: Adobe Illustrator 21.0.0, SVG Export Plug-In . SVG Version: 6.00 Build 0)  -->
<svg version="1.1" id="Layer_1" xmlns="http://www.w3.org/2000/svg" xmlns:xlink="http://www.w3.org/1999/xlink" x="0px" y="0px"
	 viewBox="0 0 200 200" style="enable-background:new 0 0 200 200;" xml:space="preserve">
<style type="text/css">
	.st0{fill:#BFBFBF;stroke:#BFBFBF;stroke-width:5;stroke-miterlimit:10;}
	.st1{fill:#BFBFBF;}
</style>
<path class="st0" d="M170,21.7h-50v10.4h50c4.6,0,8.3,2.9,8.3,6.7v132.1c0,3.8-3.8,6.7-8.3,6.7H30c-4.6,0-8.3-2.9-8.3-6.7V38.3
	c0-3.8,3.8-6.7,8.3-6.7h37.5l-7.5,5l5.8,8.8l21.7-14.2c1.2-0.8,2.1-2.5,2.5-4.2c0-1.7-0.8-3.3-2.1-4.2L66.2,7.1L60,15.4l8.7,6.2H30
	c-10.4,0-18.8,7.5-18.8,16.7v132.5c0,9.6,8.3,17.1,18.8,17.1h140c10.4,0,18.8-7.5,18.8-17.1V38.3C188.8,29.2,180.4,21.7,170,21.7z"
	/>
<path class="st1" d="M135.8,113.7h-30V98.3h28.8V86.7h-25.4l21.2-21.2l-7.5-7.5L100,80.8L77.1,57.9l-7.5,7.5l21.2,21.2H65.4v11.7
	h28.7v15.4h-30v12.1h30V160h11.7v-34.2h30V113.7z"/>
</svg>
