<?xml version="1.0" standalone="no"?><!DOCTYPE svg PUBLIC "-//W3C//DTD SVG 1.1//EN" "http://www.w3.org/Graphics/SVG/1.1/DTD/svg11.dtd"><svg t="1521884994510" class="icon" style="" viewBox="0 0 1024 1024" version="1.1" xmlns="http://www.w3.org/2000/svg" p-id="2417" xmlns:xlink="http://www.w3.org/1999/xlink" width="200" height="200"><defs><style type="text/css"></style></defs><path d="M772.552689 956.800505 247.666194 956.800505c-100.873432 0-182.935426-82.061994-182.935426-182.922123L64.730769 248.966305c0-100.873432 82.061994-182.935426 182.935426-182.935426l524.886495 0c100.873432 0 182.947705 82.061994 182.947705 182.935426 0 22.687722-18.382673 41.070394-41.071418 41.070394-22.687722 0-41.070394-18.382673-41.070394-41.070394 0-55.576783-45.216831-100.792591-100.806917-100.792591L247.666194 148.173714c-55.576783 0-100.792591 45.215808-100.792591 100.792591L146.873604 773.878382c0 55.564503 45.215808 100.780311 100.792591 100.780311l524.886495 0c55.590086 0 100.806917-45.216831 100.806917-100.780311L873.359606 381.791449c0-22.687722 18.382673-41.070394 41.070394-41.070394 22.688745 0 41.071418 18.382673 41.071418 41.070394L955.501418 773.878382C955.500395 874.738511 873.426121 956.800505 772.552689 956.800505z" p-id="2418" fill="#bfbfbf"></path><path d="M914.43 422.862867 323.538209 422.862867c-60.937884 0-110.525256-49.573045-110.525256-110.511953 0-60.937884 49.587372-110.525256 110.525256-110.525256L775.546883 201.825658c22.688745 0 41.071418 18.382673 41.071418 41.071418l0 97.825003 97.8117 0c22.688745 0 41.071418 18.382673 41.071418 41.070394S937.117722 422.862867 914.43 422.862867zM323.538209 283.96747c-15.655562 0-28.382421 12.727882-28.382421 28.383444 0 15.643282 12.727882 28.370141 28.382421 28.370141l410.93828 0 0-56.753585L323.538209 283.96747z" p-id="2419" fill="#bfbfbf"></path></svg>